# xmcd
#
# Track frame offsets:
#	180
#	25522
#	53195
#	66991
#	98240
#	170800
#	196688
#
# Disc length: 2914 seconds
#
# Revision: 1
# Processed by: cddbd v1.5.1PL0 Copyright (c) Steve Scherf et al.
# Submitted via: audiograbber 1.83.01
#
DISCID=580b6007
DTITLE=Chicago - Collection Legende
DYEAR=1900
DGENRE=
TTITLE0=25 or 6 to 4
TTITLE1=Beginnings
TTITLE2=Does Anybody know what time is
TTITLE3=I´m a Man
TTITLE4=Liberation
TTITLE5=Purple Song
TTITLE6=Questions
EXTD=
EXTT0=
EXTT1=
EXTT2=
EXTT3=
EXTT4=
EXTT5=
EXTT6=
PLAYORDER=
